<?xml version='1.0' encoding='utf-8'?>
<svg xmlns="http://www.w3.org/2000/svg" class="w-[13rem]" viewBox="0 0 198 22" fill="none"><path d="M9.19529 13.8273C9.19529 17.1389 8.19311 18.5512 5.83984 18.5512C3.48658 18.5512 2.53825 17.2859 2.53825 14.4491V14.1984H0V15.5048C0 18.7416 2.20809 21.0024 5.36685 21.0024C9.82751 21.0024 11.7312 18.8405 11.7312 13.7742V0.595306H9.19295V13.8273H9.19529Z" fill="#231E21" /><path d="M40.427 0.595306H37.8911V20.4047H50.2522V17.9559H40.427V0.595306Z" fill="#231E21" /><path d="M57.7592 0.595306H55.2209V20.4047H57.7592V0.595306Z" fill="#231E21" /><path d="M103.277 0.595306H99.8207L90.8713 10.588V0.595306H88.333V20.4047H90.8713V14.1695L93.8685 10.8579L101.2 20.4047H104.539L95.5473 9.05267L103.277 0.595306Z" fill="#231E21" /><path d="M108.866 20.4047H121.229V17.9559H111.402V11.0483H119.916V8.59955H111.402V3.04406H121.229V0.595306H108.866V20.4047Z" fill="#231E21" /><path d="M134.316 2.3403C137.079 2.3403 139.627 4.31906 139.88 6.65936L139.903 6.88351H142.51L142.465 6.59187C141.842 2.58613 138.644 -0.00241089 134.316 -0.00241089C128.938 -0.00241089 124.562 4.7071 124.562 10.4964C124.562 16.5797 128.498 20.9976 133.921 20.9976C136.651 20.9976 138.943 19.9467 140.198 18.156L140.397 20.4023H142.336V10.5374H135.265V12.9668H139.948C139.798 16.4833 137.508 18.6573 133.921 18.6573C129.039 18.6573 127.308 14.2635 127.308 10.4988C127.308 5.84712 130.322 2.3403 134.314 2.3403H134.316Z" fill="#231E21" /><path d="M147.574 20.4047H159.938V17.9559H150.11V11.0483H158.624V8.59955H150.11V3.04406H159.938V0.595306H147.574V20.4047Z" fill="#231E21" /><path d="M167.7 0.595306H165.164V20.4047H177.527V17.9559H167.7V0.595306Z" fill="#231E21" /><path d="M188.507 8.77551C185.763 8.34408 183.391 7.9705 183.391 5.71457C183.391 2.92838 186.159 2.34271 188.479 2.34271C191.319 2.34271 193.094 3.70929 193.228 6.00138L193.242 6.23758H195.789L195.766 5.96281C195.405 1.95226 192.956 0.00241089 188.273 0.00241089C183.59 0.00241089 180.857 2.17881 180.857 5.82302C180.857 10.1565 184.587 10.7519 187.877 11.2773C190.877 11.7569 193.467 12.1691 193.467 14.936C193.467 16.787 191.781 18.6597 188.561 18.6597C185.06 18.6597 183.335 17.2738 183.129 14.2973L183.112 14.0635H180.579L180.59 14.3262C180.792 18.5055 183.623 21 188.163 21C193.577 21 196 17.886 196 14.801C196 9.9565 192.019 9.32985 188.505 8.77551H188.507Z" fill="#231E21" /><path d="M63.4514 20.4047H75.8148V17.9559H65.9897V11.0483H74.5012V8.59955H65.9897V3.04406H75.8148V0.595306H63.4514V20.4047Z" fill="#231E21" /><path d="M30.3513 13.5019C30.3513 16.9244 28.5249 18.6597 24.9212 18.6597C21.3175 18.6597 19.4911 16.9244 19.4911 13.5019V0.595306H16.9529V13.6103C16.9529 18.5151 19.634 21 24.9212 21C30.2084 21 32.8895 18.3078 32.8895 13.6103V0.595306H30.3513V13.5019Z" fill="#231E21" /></svg>